<?xml version="1.0"?>
<svg xmlns="http://www.w3.org/2000/svg" height="512px" viewBox="0 0 512 512.00046" width="512px"><g><path d="m409.574219 494.425781c23.429687 23.429688 61.421875 23.429688 84.851562 0 23.429688-23.429687 23.429688-61.421875 0-84.851562l-199.050781-199.050781-84.851562 84.851562zm26.738281-79.328125-21.214844 21.214844-21.210937-21.214844 21.210937-21.214844zm-42.425781-42.425781-21.214844 21.214844-21.210937-21.214844 21.210937-21.210937zm-63.640625-63.640625 21.214844 21.214844-21.214844 21.214844-21.214844-21.214844zm0 0" data-original="#000000" class="active-path" data-old_color="#000000" fill="#f07144"/><path d="m170.992188 298.273438-16.71875 17.027343c-39.769532-21.421875-90.25-15.816406-123.832032 17.765625-33.582031 33.582032-39.1875 84.0625-17.765625 123.832032l60.191407-60.191407 42.425781 42.425781-60.191407 60.191407c39.769532 21.421875 90.25 15.816406 123.832032-17.765625 33.582031-33.582032 39.1875-84.0625 17.765625-123.832032l16.722656-17.027343zm0 0" data-original="#000000" class="active-path" data-old_color="#000000" fill="#f07144"/><path d="m339.476562 212.199219 18.25-15.5c39.769532 21.421875 90.25 15.816406 123.832032-17.765625 33.582031-33.582032 39.1875-84.0625 17.765625-123.832032l-60.191407 60.191407-42.425781-42.425781 60.1875-60.191407c-39.765625-21.421875-90.246093-15.816406-123.828125 17.765625-33.582031 33.582032-39.1875 84.0625-17.765625 123.832032l-18.25 15.5zm0 0" data-original="#000000" class="active-path" data-old_color="#000000" fill="#f07144"/><path d="m117.574219 160 92.949219 92.949219 42.425781-42.425781-92.949219-92.949219-11.070312-55.382813-111.421876-61.890625-37.207031 37.207031 61.890625 111.421876zm0 0" data-original="#000000" class="active-path" data-old_color="#000000" fill="#f07144"/></g> </svg>
